<?xml version="1.0" encoding="utf-8"?>
<!-- Generator: Adobe Illustrator 27.3.1, SVG Export Plug-In . SVG Version: 6.00 Build 0)  -->
<svg version="1.1" id="Слой_1" xmlns="http://www.w3.org/2000/svg" xmlns:xlink="http://www.w3.org/1999/xlink" x="0px" y="0px"
	 viewBox="0 0 1920 1080" style="enable-background:new 0 0 1920 1080;" xml:space="preserve">
<style type="text/css">
	.st0{fill:none;stroke:#000000;stroke-width:7;stroke-linecap:round;stroke-miterlimit:10;}
</style>
<g id="Слой_2_00000047053017129023468410000005893374638657278084_">
	<line class="st0" x1="895.6" y1="349.5" x2="805.2" y2="676.5"/>
	<line class="st0" x1="878.6" y1="554.5" x2="948.9" y2="553.1"/>
	<line class="st0" x1="896.8" y1="349.5" x2="987.2" y2="676.5"/>
</g>
<g id="Слой_3">
	<path class="st0" d="M1077.3,495.1c0.2-19.3,0.2-37.7,0-56.8"/>
	<path class="st0" d="M1077.3,606.4c0.2-21.8,0.2-43.3,0-64.7"/>
	<path class="st0" d="M1111.6,485.2c-11.3-15.3-22.7-30.8-34.2-47"/>
	<path class="st0" d="M1173.3,570c-12.9-15.5-23.1-33.5-36.1-49.5"/>
	<line class="st0" x1="1170.8" y1="464.8" x2="1111.6" y2="485.2"/>
	<line class="st0" x1="1137.2" y1="520.4" x2="1170.8" y2="464.8"/>
	<line class="st0" x1="1114.5" y1="553.3" x2="1077.3" y2="608.1"/>
	<line class="st0" x1="1173.3" y1="570" x2="1114.5" y2="553.3"/>
	<line class="st0" x1="1018.8" y1="519.9" x2="1077.3" y2="495.1"/>
	<line class="st0" x1="1077.3" y1="540.7" x2="1018.8" y2="519.9"/>
</g>
</svg>
