<?xml version="1.0" encoding="utf-8"?>
<!-- Generator: Adobe Illustrator 27.3.1, SVG Export Plug-In . SVG Version: 6.00 Build 0)  -->
<svg version="1.1" xmlns="http://www.w3.org/2000/svg" xmlns:xlink="http://www.w3.org/1999/xlink" x="0px" y="0px"
	 viewBox="0 0 1920 1080" style="enable-background:new 0 0 1920 1080;" xml:space="preserve">
<style type="text/css">
	.st0{fill:none;stroke:#000000;stroke-width:7;stroke-linecap:round;stroke-miterlimit:10;}
	.st1{stroke:#000000;stroke-width:7;stroke-linecap:round;stroke-miterlimit:10;}
</style>
<g id="Слой_3">
	
		<image style="display:none;overflow:visible;" width="1080" height="895" xlink:href="47717923.jpg"  transform="matrix(1 0 0 1 420 92)">
	</image>
</g>
<g id="Слой_1">
	<line class="st0" x1="957.5" y1="543.3" x2="1180.5" y2="650.3"/>
	<line class="st0" x1="1206.5" y1="634.3" x2="1198.5" y2="565.3"/>
	<line class="st0" x1="1228.5" y1="648.3" x2="1296.5" y2="612.3"/>
	<line class="st0" x1="1235.5" y1="679.3" x2="1318.5" y2="724.3"/>
	<line class="st0" x1="1197.5" y1="697.3" x2="1180.5" y2="749.3"/>
	<line class="st0" x1="1111.5" y1="681.3" x2="1167.5" y2="666.3"/>
	<line class="st0" x1="913.5" y1="575.3" x2="915.5" y2="681.3"/>
	<line class="st0" x1="984.5" y1="640.3" x2="933.5" y2="689.3"/>
	<line class="st0" x1="944.5" y1="713.3" x2="995.5" y2="735.3"/>
	<line class="st0" x1="919.5" y1="735.3" x2="920.5" y2="763.3"/>
	<line class="st0" x1="889.5" y1="723.3" x2="850.5" y2="742.3"/>
	<line class="st0" x1="896.5" y1="683.3" x2="862.5" y2="658.3"/>
	<line class="st0" x1="768.5" y1="577.3" x2="879.5" y2="540.1"/>
	<line class="st0" x1="901.5" y1="496.3" x2="845.5" y2="421.3"/>
	<line class="st0" x1="859.5" y1="383.3" x2="903.5" y2="346.3"/>
	<line class="st0" x1="801.5" y1="380.3" x2="720.5" y2="333.3"/>
	<line class="st0" x1="793.5" y1="416.3" x2="753.5" y2="426.3"/>
	<line class="st0" x1="761" y1="552.3" x2="790.5" y2="518.3"/>
	<line class="st0" x1="724.5" y1="550.3" x2="705.5" y2="515.3"/>
	<g id="Слой_2">
		<line class="st0" x1="728.5" y1="611.3" x2="694.5" y2="732.8"/>
	</g>
	<line class="st0" x1="709.5" y1="596.8" x2="660.5" y2="610.3"/>
	<circle class="st1" cx="1204.5" cy="661.3" r="44"/>
	<circle class="st1" cx="916.8" cy="705.3" r="37.5"/>
	<circle class="st1" cx="739.2" cy="577.4" r="37.5"/>
	<circle class="st1" cx="831.5" cy="406.7" r="37.5"/>
	<circle class="st1" cx="916" cy="531.8" r="53.5"/>
	<circle class="st1" cx="1326.9" cy="728.8" r="18.5"/>
	<circle class="st1" cx="992.4" cy="632.6" r="18.5"/>
	<circle class="st1" cx="851.2" cy="650" r="18.5"/>
	<circle class="st1" cx="840" cy="747.3" r="18.5"/>
	<circle class="st1" cx="920" cy="776.3" r="18.5"/>
	<circle class="st1" cx="1010.9" cy="741.9" r="18.5"/>
	<circle class="st1" cx="1196.6" cy="549.5" r="18.5"/>
	<circle class="st1" cx="1308.4" cy="605.9" r="18.5"/>
	<circle class="st1" cx="1176.8" cy="760.4" r="18.5"/>
	<circle class="st1" cx="1091.5" cy="686.6" r="18.5"/>
	<circle class="st1" cx="691.7" cy="742.8" r="18.5"/>
	<circle class="st1" cx="643.7" cy="614.9" r="18.5"/>
	<circle class="st1" cx="699.7" cy="504.7" r="18.5"/>
	<circle class="st1" cx="802.2" cy="504.7" r="18.5"/>
	<circle class="st1" cx="739.2" cy="429.8" r="18.5"/>
	<circle class="st1" cx="916.8" cy="335" r="18.5"/>
	<circle class="st1" cx="707.8" cy="325.9" r="18.5"/>
</g>
</svg>
